<mxfile host="app.diagrams.net" agent="Mozilla/5.0 (Windows NT 10.0; Win64; x64) AppleWebKit/537.36 (KHTML, like Gecko) Chrome/138.0.0.0 Safari/537.36" version="28.0.2">
  <diagram name="Page-1" id="TGmJP82NUMr4Z38gTpp3">
    <mxGraphModel dx="2000" dy="811" grid="1" gridSize="10" guides="1" tooltips="1" connect="1" arrows="1" fold="1" page="1" pageScale="1" pageWidth="827" pageHeight="1169" math="0" shadow="0">
      <root>
        <mxCell id="0" />
        <mxCell id="1" parent="0" />
        <mxCell id="uNBYoxJdR391oRzMAxKE-18" value="" style="edgeStyle=orthogonalEdgeStyle;rounded=0;orthogonalLoop=1;jettySize=auto;html=1;" edge="1" parent="1" source="uNBYoxJdR391oRzMAxKE-13" target="uNBYoxJdR391oRzMAxKE-17">
          <mxGeometry relative="1" as="geometry" />
        </mxCell>
        <mxCell id="uNBYoxJdR391oRzMAxKE-13" value="ENROLLS" style="rhombus;whiteSpace=wrap;html=1;rounded=0;" vertex="1" parent="1">
          <mxGeometry x="221" y="112" width="80" height="80" as="geometry" />
        </mxCell>
        <mxCell id="uNBYoxJdR391oRzMAxKE-17" value="COURSE" style="whiteSpace=wrap;html=1;rounded=0;" vertex="1" parent="1">
          <mxGeometry x="361" y="122" width="120" height="60" as="geometry" />
        </mxCell>
        <mxCell id="uNBYoxJdR391oRzMAxKE-19" value="STUDENT" style="whiteSpace=wrap;html=1;rounded=0;" vertex="1" parent="1">
          <mxGeometry x="41" y="122" width="120" height="60" as="geometry" />
        </mxCell>
        <mxCell id="uNBYoxJdR391oRzMAxKE-23" value="" style="edgeStyle=orthogonalEdgeStyle;rounded=0;orthogonalLoop=1;jettySize=auto;html=1;" edge="1" parent="1" source="uNBYoxJdR391oRzMAxKE-21" target="uNBYoxJdR391oRzMAxKE-17">
          <mxGeometry relative="1" as="geometry" />
        </mxCell>
        <mxCell id="uNBYoxJdR391oRzMAxKE-21" value="HAS" style="rhombus;whiteSpace=wrap;html=1;rounded=0;" vertex="1" parent="1">
          <mxGeometry x="581" y="112" width="80" height="80" as="geometry" />
        </mxCell>
        <mxCell id="uNBYoxJdR391oRzMAxKE-24" value="SUBJECT&amp;nbsp;" style="whiteSpace=wrap;html=1;rounded=0;" vertex="1" parent="1">
          <mxGeometry x="561" y="282" width="120" height="60" as="geometry" />
        </mxCell>
        <mxCell id="uNBYoxJdR391oRzMAxKE-27" value="TAUGHT&amp;nbsp;" style="rhombus;whiteSpace=wrap;html=1;rounded=0;" vertex="1" parent="1">
          <mxGeometry x="405" y="273" width="80" height="80" as="geometry" />
        </mxCell>
        <mxCell id="uNBYoxJdR391oRzMAxKE-29" value="TEACHERS" style="whiteSpace=wrap;html=1;rounded=0;" vertex="1" parent="1">
          <mxGeometry x="223" y="283" width="120" height="60" as="geometry" />
        </mxCell>
        <mxCell id="uNBYoxJdR391oRzMAxKE-34" value="" style="edgeStyle=orthogonalEdgeStyle;rounded=0;orthogonalLoop=1;jettySize=auto;html=1;" edge="1" parent="1" source="uNBYoxJdR391oRzMAxKE-31" target="uNBYoxJdR391oRzMAxKE-33">
          <mxGeometry relative="1" as="geometry" />
        </mxCell>
        <mxCell id="uNBYoxJdR391oRzMAxKE-31" value="BELONG" style="rhombus;whiteSpace=wrap;html=1;rounded=0;" vertex="1" parent="1">
          <mxGeometry x="241" y="397" width="80" height="80" as="geometry" />
        </mxCell>
        <mxCell id="uNBYoxJdR391oRzMAxKE-33" value="DEPARTMENT&amp;nbsp;" style="whiteSpace=wrap;html=1;rounded=0;" vertex="1" parent="1">
          <mxGeometry x="220" y="525" width="120" height="60" as="geometry" />
        </mxCell>
        <mxCell id="uNBYoxJdR391oRzMAxKE-35" value="" style="endArrow=none;html=1;rounded=0;exitX=1;exitY=0.5;exitDx=0;exitDy=0;entryX=0;entryY=0.5;entryDx=0;entryDy=0;" edge="1" parent="1" source="uNBYoxJdR391oRzMAxKE-19" target="uNBYoxJdR391oRzMAxKE-13">
          <mxGeometry width="50" height="50" relative="1" as="geometry">
            <mxPoint x="520" y="210" as="sourcePoint" />
            <mxPoint x="570" y="160" as="targetPoint" />
          </mxGeometry>
        </mxCell>
        <mxCell id="uNBYoxJdR391oRzMAxKE-37" value="" style="endArrow=none;html=1;rounded=0;entryX=0.5;entryY=1;entryDx=0;entryDy=0;" edge="1" parent="1" target="uNBYoxJdR391oRzMAxKE-21">
          <mxGeometry width="50" height="50" relative="1" as="geometry">
            <mxPoint x="620" y="280" as="sourcePoint" />
            <mxPoint x="570" y="160" as="targetPoint" />
          </mxGeometry>
        </mxCell>
        <mxCell id="uNBYoxJdR391oRzMAxKE-38" value="" style="endArrow=none;html=1;rounded=0;entryX=0;entryY=0.5;entryDx=0;entryDy=0;exitX=1;exitY=0.5;exitDx=0;exitDy=0;" edge="1" parent="1" source="uNBYoxJdR391oRzMAxKE-29" target="uNBYoxJdR391oRzMAxKE-27">
          <mxGeometry width="50" height="50" relative="1" as="geometry">
            <mxPoint x="520" y="510" as="sourcePoint" />
            <mxPoint x="570" y="460" as="targetPoint" />
          </mxGeometry>
        </mxCell>
        <mxCell id="uNBYoxJdR391oRzMAxKE-39" value="" style="endArrow=none;html=1;rounded=0;entryX=0.5;entryY=1;entryDx=0;entryDy=0;exitX=0.5;exitY=0;exitDx=0;exitDy=0;" edge="1" parent="1" source="uNBYoxJdR391oRzMAxKE-31" target="uNBYoxJdR391oRzMAxKE-29">
          <mxGeometry width="50" height="50" relative="1" as="geometry">
            <mxPoint x="619" y="710" as="sourcePoint" />
            <mxPoint x="619" y="642" as="targetPoint" />
          </mxGeometry>
        </mxCell>
        <mxCell id="uNBYoxJdR391oRzMAxKE-40" value="" style="endArrow=none;html=1;rounded=0;entryX=0;entryY=0.5;entryDx=0;entryDy=0;exitX=1;exitY=0.5;exitDx=0;exitDy=0;" edge="1" parent="1" source="uNBYoxJdR391oRzMAxKE-27" target="uNBYoxJdR391oRzMAxKE-24">
          <mxGeometry width="50" height="50" relative="1" as="geometry">
            <mxPoint x="520" y="530" as="sourcePoint" />
            <mxPoint x="570" y="480" as="targetPoint" />
          </mxGeometry>
        </mxCell>
      </root>
    </mxGraphModel>
  </diagram>
</mxfile>
